<?xml version="1.0" encoding="UTF-8"?>
<svg width="100px" height="43px" viewBox="0 0 100 43" version="1.1" xmlns="http://www.w3.org/2000/svg" xmlns:xlink="http://www.w3.org/1999/xlink">
    <title>logo</title>
    <defs>
        <rect id="path-1" x="0" y="-1.07538641e-23" width="99.95" height="42.4438664"></rect>
        <rect id="path-3" x="0" y="-1.07538641e-23" width="99.95" height="42.4438664"></rect>
        <rect id="path-5" x="0" y="-1.07538641e-23" width="99.95" height="42.4438664"></rect>
        <rect id="path-7" x="0" y="-1.07538641e-23" width="99.95" height="42.4438664"></rect>
        <rect id="path-9" x="0" y="-1.07538641e-23" width="99.95" height="42.4438664"></rect>
        <rect id="path-11" x="0" y="-1.07538641e-23" width="99.95" height="42.4438664"></rect>
        <rect id="path-13" x="0" y="-1.07538641e-23" width="99.95" height="42.4438664"></rect>
        <rect id="path-15" x="0" y="-1.07538641e-23" width="99.95" height="42.4438664"></rect>
        <rect id="path-17" x="0" y="-1.07538641e-23" width="99.95" height="42.4438664"></rect>
        <rect id="path-19" x="0" y="-1.07538641e-23" width="99.95" height="42.4438664"></rect>
        <rect id="path-21" x="0" y="-1.07538641e-23" width="99.95" height="42.4438664"></rect>
        <rect id="path-23" x="0" y="-1.07538641e-23" width="99.95" height="42.4438664"></rect>
        <rect id="path-25" x="0" y="-1.07538641e-23" width="99.95" height="42.4438664"></rect>
        <rect id="path-27" x="0" y="-1.07538641e-23" width="99.95" height="42.4438664"></rect>
        <rect id="path-29" x="0" y="-1.07538641e-23" width="99.95" height="42.4438664"></rect>
        <rect id="path-31" x="0" y="-1.07538641e-23" width="99.95" height="42.4438664"></rect>
        <rect id="path-33" x="0" y="-1.07538641e-23" width="99.95" height="42.4438664"></rect>
        <rect id="path-35" x="0" y="-1.07538641e-23" width="99.95" height="42.4438664"></rect>
        <rect id="path-37" x="0" y="-1.07538641e-23" width="99.95" height="42.4438664"></rect>
        <rect id="path-39" x="0" y="-1.07538641e-23" width="99.95" height="42.4438664"></rect>
        <rect id="path-41" x="0" y="-1.07538641e-23" width="99.95" height="42.4438664"></rect>
        <rect id="path-43" x="0" y="-1.07538641e-23" width="99.95" height="42.4438664"></rect>
        <rect id="path-45" x="0" y="-1.07538641e-23" width="99.95" height="42.4438664"></rect>
        <rect id="path-47" x="0" y="-1.07538641e-23" width="99.95" height="42.4438664"></rect>
        <rect id="path-49" x="0" y="-1.07538641e-23" width="99.95" height="42.4438664"></rect>
    </defs>
    <g id="Page-1" stroke="none" stroke-width="1" fill="none" fill-rule="evenodd">
        <g id="logo" transform="translate(0.000000, 0.280000)">
            <polygon id="Path" fill="#000000" fill-rule="nonzero" points="2.73975158 28.0451385 1.7798128 29.6523462 0.820227719 28.0451385 0.229550578 28.0451385 0.229550578 31.4445385 0.774954262 31.4445385 0.774954262 29.0163956 1.76177416 30.6091017 1.7798128 30.6091017 2.77618256 29.0068457 2.77618256 31.4445385 3.33042872 31.4445385 3.33042872 28.0451385"></polygon>
            <polygon id="Path" fill="#000000" fill-rule="nonzero" points="4.00705469 28.0451385 6.34606543 28.0451385 6.34606543 28.5795775 4.56130085 28.5795775 4.56130085 29.463471 6.14339597 29.463471 6.14339597 29.9975563 4.56130085 29.9975563 4.56130085 30.9104531 6.36870216 30.9104531 6.36870216 31.4445385 4.00705469 31.4445385"></polygon>
            <polygon id="Path" fill="#000000" fill-rule="nonzero" points="6.89182281 28.0451385 7.48214626 28.0451385 8.44208504 29.6523462 9.40237751 28.0451385 9.99234726 28.0451385 9.99234726 31.4445385 9.4384548 31.4445385 9.4384548 29.0068457 8.44208504 30.6091017 8.42404639 30.6091017 7.4372265 29.0163956 7.4372265 31.4445385 6.89182281 31.4445385"></polygon>
            <g id="Shape-Clipped">
                <mask id="mask-2" fill="white">
                    <use xlink:href="#path-1"></use>
                </mask>
                <g id="path-1"></g>
                <path d="M10.6696806,28.0451385 L12.0848299,28.0451385 C12.4448953,28.0451385 12.7289155,28.1523092 12.909302,28.3464899 C13.049013,28.4971656 13.1211676,28.6814428 13.1211676,28.9099322 L13.1211676,28.9194821 C13.1211676,29.3272969 12.9050576,29.5458828 12.6705552,29.6771051 C13.0401706,29.8129255 13.2966023,30.041415 13.2966023,30.5026383 L13.2966023,30.5121882 C13.2966023,31.1194892 12.8325493,31.4445385 12.1297496,31.4445385 L10.6696806,31.4445385 L10.6696806,28.0451385 Z M12.5665678,29.0071994 C12.5665678,28.7394494 12.3681427,28.574272 12.0123216,28.574272 L11.2143769,28.574272 L11.2143769,29.4776189 L11.9716462,29.4776189 C12.3274673,29.4776189 12.5665678,29.3272969 12.5665678,29.0163956 L12.5665678,29.0071994 L12.5665678,29.0071994 Z M12.0933186,29.9830547 L11.2143769,29.9830547 L11.2143769,30.9150512 L12.133994,30.9150512 C12.5124518,30.9150512 12.7423561,30.7551793 12.7423561,30.4492298 L12.7423561,30.4396799 C12.7423561,30.1524764 12.5308442,29.9830547 12.0933186,29.9830547" id="Shape" fill="#000000" fill-rule="nonzero" mask="url(#mask-2)"></path>
            </g>
            <polygon id="Path" fill="#000000" fill-rule="nonzero" points="13.7885974 28.0451385 16.1276082 28.0451385 16.1276082 28.5795775 14.3428436 28.5795775 14.3428436 29.463471 15.924585 29.463471 15.924585 29.9975563 14.3428436 29.9975563 14.3428436 30.9104531 16.1502449 30.9104531 16.1502449 31.4445385 13.7885974 31.4445385"></polygon>
            <g id="Group">
                <g id="Shape-Clipped">
                    <mask id="mask-4" fill="white">
                        <use xlink:href="#path-3"></use>
                    </mask>
                    <g id="path-3"></g>
                    <path d="M16.6733655,28.0451385 L18.0796723,28.0451385 C18.4761688,28.0451385 18.7870701,28.171409 18.9900932,28.3850431 C19.1566854,28.5696739 19.2514767,28.8218612 19.2514767,29.1182609 L19.2514767,29.1278107 C19.2514767,29.6863013 18.9402217,30.0212541 18.5030499,30.1574282 L19.3551105,31.4441848 L18.6972306,31.4441848 L17.9219226,30.2592935 L17.2276117,30.2592935 L17.2276117,31.4441848 L16.6733655,31.4441848 L16.6733655,28.0451385 L16.6733655,28.0451385 Z M18.0389969,29.7305137 C18.4354934,29.7305137 18.6880344,29.506976 18.6880344,29.1621195 L18.6880344,29.1525697 C18.6880344,28.7886135 18.4446896,28.589481 18.0343989,28.589481 L17.2276117,28.589481 L17.2276117,29.7308673 L18.0389969,29.7308673 L18.0389969,29.7305137 Z" id="Shape" fill="#000000" fill-rule="nonzero" mask="url(#mask-4)"></path>
                </g>
                <g id="Shape-Clipped">
                    <mask id="mask-6" fill="white">
                        <use xlink:href="#path-5"></use>
                    </mask>
                    <g id="path-5"></g>
                    <path d="M20.8746009,29.7545652 L20.8746009,29.7450153 C20.8746009,28.7882598 21.5597157,27.9871318 22.5284969,27.9871318 C23.4976319,27.9871318 24.1731967,28.7783562 24.1731967,29.7351117 L24.1731967,29.7446616 C24.1731967,30.7010634 23.4884357,31.502899 22.5193007,31.502899 C21.5508732,31.5032525 20.8746009,30.7113207 20.8746009,29.7545652 M23.5920695,29.7545652 L23.5920695,29.7450153 C23.5920695,29.0843058 23.1460552,28.5357188 22.5193007,28.5357188 C21.8932537,28.5357188 21.4560819,29.0747559 21.4560819,29.7354654 L21.4560819,29.7450153 C21.4560819,30.4053711 21.9020962,30.9490063 22.5284969,30.9490063 C23.1548976,30.9490063 23.5920695,30.414921 23.5920695,29.7545652" id="Shape" fill="#000000" fill-rule="nonzero" mask="url(#mask-6)"></path>
                </g>
            </g>
            <polygon id="Path" fill="#000000" fill-rule="nonzero" points="24.7104653 28.0451385 27.0586723 28.0451385 27.0586723 28.5891273 25.2650652 28.5891273 25.2650652 29.5165258 26.8560028 29.5165258 26.8560028 30.0605147 25.2650652 30.0605147 25.2650652 31.4445385 24.7104653 31.4445385"></polygon>
            <g id="Shape-Clipped">
                <mask id="mask-8" fill="white">
                    <use xlink:href="#path-7"></use>
                </mask>
                <g id="path-7"></g>
                <path d="M28.7497066,28.0451385 L30.1645022,28.0451385 C30.5249214,28.0451385 30.8092953,28.1523092 30.989328,28.3464899 C31.1293927,28.4971656 31.2011936,28.6814428 31.2011936,28.9099322 L31.2011936,28.9194821 C31.2011936,29.3272969 30.9850836,29.5458828 30.7505812,29.6771051 C31.1201966,29.8129255 31.376982,30.041415 31.376982,30.5026383 L31.376982,30.5121882 C31.376982,31.1194892 30.9125753,31.4445385 30.2097756,31.4445385 L28.7497066,31.4445385 L28.7497066,28.0451385 Z M30.6465938,29.0071994 C30.6465938,28.7394494 30.4485224,28.574272 30.0923476,28.574272 L29.2944029,28.574272 L29.2944029,29.4776189 L30.0516722,29.4776189 C30.4074933,29.4776189 30.6465938,29.3272969 30.6465938,29.0163956 L30.6465938,29.0071994 L30.6465938,29.0071994 Z M30.1736984,29.9830547 L29.2947566,29.9830547 L29.2947566,30.9150512 L30.2143737,30.9150512 C30.5928315,30.9150512 30.8227358,30.7551793 30.8227358,30.4492298 L30.8227358,30.4396799 C30.8227358,30.1524764 30.6105165,29.9830547 30.1736984,29.9830547" id="Shape" fill="#000000" fill-rule="nonzero" mask="url(#mask-8)"></path>
            </g>
            <path d="M32.9866656,28.0210869 L33.5002364,28.0210869 L34.8881508,31.4445385 L34.3024255,31.4445385 L33.982328,30.6243107 L32.4904261,30.6243107 L32.1664379,31.4445385 L31.5983975,31.4445385 L32.9866656,28.0210869 Z M33.7793048,30.0944698 L33.2339011,28.7348513 L32.6930955,30.0944698 L33.7793048,30.0944698 Z" id="Shape" fill="#000000" fill-rule="nonzero"></path>
            <g id="Group">
                <g id="Path-Clipped">
                    <mask id="mask-10" fill="white">
                        <use xlink:href="#path-9"></use>
                    </mask>
                    <g id="path-9"></g>
                    <path d="M35.0285693,30.9490063 L35.3621073,30.5217381 C35.6641662,30.8032824 35.9704694,30.963508 36.3581234,30.963508 C36.7005039,30.963508 36.9166139,30.7887807 36.9166139,30.5362397 L36.9166139,30.5266898 C36.9166139,30.2836987 36.7906971,30.1524764 36.2046181,30.0067525 C35.5332976,29.8320252 35.1548398,29.6183911 35.1548398,28.9919904 L35.1548398,28.9827942 C35.1548398,28.3998984 35.6054522,27.9970354 36.2318529,27.9970354 C36.6916614,27.9970354 37.056325,28.1473574 37.3767762,28.4243037 L37.0789617,28.8756234 C36.7949415,28.6474877 36.511275,28.5261689 36.2226567,28.5261689 C35.8983148,28.5261689 35.7090859,28.705848 35.7090859,28.9293857 L35.7090859,28.9392892 C35.7090859,29.2010264 35.8533951,29.3173934 36.4617572,29.4733746 C37.1284796,29.6481018 37.4712138,29.9055946 37.4712138,30.4683295 L37.4712138,30.4782331 C37.4712138,31.11383 37.0068072,31.4929952 36.3443291,31.4929952 C35.8622376,31.4929952 35.4070271,31.3133162 35.0285693,30.9490063" id="Path" fill="#000000" fill-rule="nonzero" mask="url(#mask-10)"></path>
                </g>
                <g id="Shape-Clipped">
                    <mask id="mask-12" fill="white">
                        <use xlink:href="#path-11"></use>
                    </mask>
                    <g id="path-11"></g>
                    <path d="M40.8334754,31.5464037 L40.4550176,31.1824476 C40.1893897,31.3815801 39.8646942,31.5025451 39.4950788,31.5025451 C38.5262976,31.5025451 37.8500253,30.7116744 37.8500253,29.7549189 L37.8500253,29.745369 C37.8500253,28.7886135 38.53514,27.9874855 39.5039213,27.9874855 C40.4730562,27.9874855 41.1489748,28.7790636 41.1489748,29.7351117 L41.1489748,29.7450153 C41.1489748,30.1284249 41.0319005,30.4927348 40.829231,30.7887807 L41.1896502,31.1191355 L40.8334754,31.5464037 Z M40.049325,30.7937325 L39.5039213,30.2936023 L39.8600961,29.8571379 L40.4143422,30.400773 C40.5133779,30.2164959 40.5678476,29.9972026 40.5678476,29.7549189 L40.5678476,29.745369 C40.5678476,29.0846595 40.1214796,28.5360725 39.4950788,28.5360725 C38.8686781,28.5360725 38.4315063,29.0751096 38.4315063,29.7354654 L38.4315063,29.745369 C38.4315063,30.4057248 38.8778743,30.9497137 39.5039213,30.9497137 C39.7111888,30.94936 39.8965271,30.8909997 40.049325,30.7937325" id="Shape" fill="#000000" fill-rule="nonzero" mask="url(#mask-12)"></path>
                </g>
                <g id="Path-Clipped">
                    <mask id="mask-14" fill="white">
                        <use xlink:href="#path-13"></use>
                    </mask>
                    <g id="path-13"></g>
                    <path d="M41.6367256,30.0021544 L41.6367256,28.0451385 L42.1909717,28.0451385 L42.1909717,29.9777492 C42.1909717,30.6091017 42.4930306,30.9444082 42.9889164,30.9444082 C43.4798505,30.9444082 43.7819093,30.6282014 43.7819093,30.0021544 L43.7819093,28.0451385 L44.3361555,28.0451385 L44.3361555,29.9727974 C44.3361555,30.9879132 43.8045461,31.4975933 42.9797203,31.4975933 C42.1594925,31.4975933 41.6367256,30.9882669 41.6367256,30.0021544" id="Path" fill="#000000" fill-rule="nonzero" mask="url(#mask-14)"></path>
                </g>
            </g>
            <polygon id="Path" fill="#000000" fill-rule="nonzero" points="44.9632636 28.0451385 47.3022744 28.0451385 47.3022744 28.5795775 45.5175098 28.5795775 45.5175098 29.463471 47.0992512 29.463471 47.0992512 29.9975563 45.5175098 29.9975563 45.5175098 30.9104531 47.3245574 30.9104531 47.3245574 31.4445385 44.9632636 31.4445385"></polygon>
            <g id="Shape-Clipped">
                <mask id="mask-16" fill="white">
                    <use xlink:href="#path-15"></use>
                </mask>
                <g id="path-15"></g>
                <path d="M49.0654633,28.0451385 L50.4714164,28.0451385 C50.8679128,28.0451385 51.1788142,28.171409 51.3814836,28.3850431 C51.5484295,28.5696739 51.6432208,28.8218612 51.6432208,29.1182609 L51.6432208,29.1278107 C51.6432208,29.6863013 51.3323195,30.0212541 50.8951477,30.1574282 L51.7468546,31.4441848 L51.0889746,31.4441848 L50.3136667,30.2592935 L49.6193558,30.2592935 L49.6193558,31.4441848 L49.0654633,31.4441848 L49.0654633,28.0451385 Z M50.430741,29.7305137 C50.8272375,29.7305137 51.0797785,29.506976 51.0797785,29.1621195 L51.0797785,29.1525697 C51.0797785,28.7886135 50.8364336,28.589481 50.4261429,28.589481 L49.6193558,28.589481 L49.6193558,29.7308673 L50.430741,29.7308673 L50.430741,29.7305137 Z" id="Shape" fill="#000000" fill-rule="nonzero" mask="url(#mask-16)"></path>
            </g>
            <polygon id="Path" fill="#000000" fill-rule="nonzero" points="52.1889782 28.0451385 54.5276352 28.0451385 54.5276352 28.5795775 52.7432243 28.5795775 52.7432243 29.463471 54.3249658 29.463471 54.3249658 29.9975563 52.7432243 29.9975563 52.7432243 30.9104531 54.5506257 30.9104531 54.5506257 31.4445385 52.1889782 31.4445385"></polygon>
            <g id="Path-Clipped">
                <mask id="mask-18" fill="white">
                    <use xlink:href="#path-17"></use>
                </mask>
                <g id="path-17"></g>
                <path d="M54.8618807,30.9490063 L55.1954187,30.5217381 C55.4974776,30.8032824 55.8037808,30.963508 56.1914348,30.963508 C56.5338153,30.963508 56.7495716,30.7887807 56.7495716,30.5362397 L56.7495716,30.5266898 C56.7495716,30.2836987 56.6240085,30.1524764 56.0375758,30.0067525 C55.366609,29.8320252 54.9874438,29.6183911 54.9874438,28.9919904 L54.9874438,28.9827942 C54.9874438,28.3998984 55.4380562,27.9970354 56.0648106,27.9970354 C56.5246191,27.9970354 56.8892827,28.1473574 57.2093802,28.4243037 L56.9115657,28.8756234 C56.6275455,28.6474877 56.3442327,28.5261689 56.0556144,28.5261689 C55.7309188,28.5261689 55.5416899,28.705848 55.5416899,28.9293857 L55.5416899,28.9392892 C55.5416899,29.2010264 55.6859991,29.3173934 56.2947149,29.4733746 C56.9614373,29.6481018 57.3041715,29.9055946 57.3041715,30.4683295 L57.3041715,30.4782331 C57.3041715,31.11383 56.8397648,31.4929952 56.1772868,31.4929952 C55.6959026,31.4929952 55.2406922,31.3133162 54.8618807,30.9490063" id="Path" fill="#000000" fill-rule="nonzero" mask="url(#mask-18)"></path>
            </g>
            <polygon id="Path" fill="#000000" fill-rule="nonzero" points="57.8234015 28.0451385 60.1620585 28.0451385 60.1620585 28.5795775 58.3776476 28.5795775 58.3776476 29.463471 59.959389 29.463471 59.959389 29.9975563 58.3776476 29.9975563 58.3776476 30.9104531 60.1846952 30.9104531 60.1846952 31.4445385 57.8234015 31.4445385"></polygon>
            <path d="M61.8265655,28.0210869 L62.3401362,28.0210869 L63.7280507,31.4445385 L63.1423253,31.4445385 L62.8225815,30.6243107 L61.3303259,30.6243107 L61.0063377,31.4445385 L60.4379436,31.4445385 L61.8265655,28.0210869 Z M62.6192047,30.0944698 L62.0741547,28.7348513 L61.5333491,30.0944698 L62.6192047,30.0944698 Z" id="Shape" fill="#000000" fill-rule="nonzero"></path>
            <g id="Group">
                <g id="Shape-Clipped">
                    <mask id="mask-20" fill="white">
                        <use xlink:href="#path-19"></use>
                    </mask>
                    <g id="path-19"></g>
                    <path d="M64.134097,28.0451385 L65.5404038,28.0451385 C65.9369002,28.0451385 66.2478015,28.171409 66.4508247,28.3850431 C66.6174169,28.5696739 66.7115008,28.8218612 66.7115008,29.1182609 L66.7115008,29.1278107 C66.7115008,29.6863013 66.4013069,30.0212541 65.964135,30.1574282 L66.8151346,31.4441848 L66.1576083,31.4441848 L65.3826541,30.2592935 L64.6886969,30.2592935 L64.6886969,31.4441848 L64.1344507,31.4441848 L64.1344507,28.0451385 L64.134097,28.0451385 Z M65.4997284,29.7305137 C65.8962249,29.7305137 66.1487659,29.506976 66.1487659,29.1621195 L66.1487659,29.1525697 C66.1487659,28.7886135 65.905421,28.589481 65.4951303,28.589481 L64.6886969,28.589481 L64.6886969,29.7308673 L65.4997284,29.7308673 L65.4997284,29.7305137 Z" id="Shape" fill="#000000" fill-rule="nonzero" mask="url(#mask-20)"></path>
                </g>
                <g id="Path-Clipped">
                    <mask id="mask-22" fill="white">
                        <use xlink:href="#path-21"></use>
                    </mask>
                    <g id="path-21"></g>
                    <path d="M67.1182545,29.7545652 L67.1182545,29.7450153 C67.1182545,28.7787099 67.7899287,27.9871318 68.7456231,27.9871318 C69.3271041,27.9871318 69.6786808,28.2057177 69.9800322,28.5162654 L69.6242111,28.9580353 C69.3716701,28.705848 69.1010905,28.5357188 68.7406713,28.5357188 C68.1418591,28.5357188 67.6997355,29.0698041 67.6997355,29.7354654 L67.6997355,29.7450153 C67.6997355,30.4099692 68.1369073,30.9490063 68.7406713,30.9490063 C69.1283253,30.9490063 69.3762682,30.7841826 69.6464942,30.5121882 L70.0030226,30.9009033 C69.6740827,31.2698112 69.3136635,31.5032525 68.7233401,31.5032525 C67.8030156,31.5032525 67.1182545,30.7307741 67.1182545,29.7545652" id="Path" fill="#000000" fill-rule="nonzero" mask="url(#mask-22)"></path>
                </g>
            </g>
            <polygon id="Path" fill="#000000" fill-rule="nonzero" points="70.5395838 28.0451385 71.09383 28.0451385 71.09383 29.4581655 72.5991725 29.4581655 72.5991725 28.0451385 73.1534186 28.0451385 73.1534186 31.4445385 72.5991725 31.4445385 72.5991725 30.012058 71.09383 30.012058 71.09383 31.4445385 70.5395838 31.4445385"></polygon>
            <g id="Shape-Clipped">
                <mask id="mask-24" fill="white">
                    <use xlink:href="#path-23"></use>
                </mask>
                <g id="path-23"></g>
                <path d="M1.99627652,36.4469018 C1.72569687,36.7188963 1.41055116,36.8890254 1.03173965,36.8890254 C0.441416211,36.8890254 2.0105454e-14,36.5052621 2.0105454e-14,35.9177683 L2.0105454e-14,35.9078647 C2.0105454e-14,35.4706929 0.238746749,35.1555472 0.671320488,34.9564147 C0.490934055,34.7088255 0.40993701,34.4948377 0.40993701,34.2472484 L0.40993701,34.2376986 C0.40993701,33.781427 0.752317533,33.3831621 1.31575986,33.3831621 C1.81589009,33.3831621 2.15402622,33.7471182 2.15402622,34.2033898 L2.15402622,34.2132933 C2.15402622,34.660015 1.87884849,34.9270577 1.46006901,35.0971869 L2.0008746,35.6892788 C2.12254702,35.4954518 2.23502327,35.2719141 2.33865704,35.0338748 L2.75779022,35.2719141 C2.63151972,35.5439086 2.49216236,35.8105975 2.32981457,36.0440388 L2.8299448,36.5880277 L2.4154097,36.9081252 L1.99627652,36.4469018 Z M1.68077711,36.0974473 L0.977623724,35.3249689 C0.684761045,35.4614967 0.558844242,35.6701791 0.558844242,35.8884113 L0.558844242,35.8979611 C0.558844242,36.1848109 0.779198648,36.3931411 1.08585558,36.3931411 C1.3023193,36.3934933 1.50039068,36.2817244 1.68077711,36.0974473 M1.66273847,34.2468947 L1.66273847,34.2373449 C1.66273847,34.0092091 1.51418494,33.8539353 1.30691739,33.8539353 C1.0816112,33.8539353 0.92810588,34.023357 0.92810588,34.2613964 L0.92810588,34.2713 C0.92810588,34.4407217 0.99141798,34.5673459 1.16720633,34.776382 C1.49154821,34.6504652 1.66273847,34.4898859 1.66273847,34.2468947" id="Shape" fill="#000000" fill-rule="nonzero" mask="url(#mask-24)"></path>
            </g>
            <polygon id="Path" fill="#000000" fill-rule="nonzero" points="5.04374613 33.9947074 4.04313198 33.9947074 4.04313198 33.4411687 6.60285082 33.4411687 6.60285082 33.9947074 5.60259037 33.9947074 5.60259037 36.840215 5.04374613 36.840215"></polygon>
            <polygon id="Path" fill="#000000" fill-rule="nonzero" points="7.0541706 33.4411687 9.39318134 33.4411687 9.39318134 33.975254 7.60841676 33.975254 7.60841676 34.8591475 9.19015818 34.8591475 9.19015818 35.3932328 7.60841676 35.3932328 7.60841676 36.3061297 9.41581807 36.3061297 9.41581807 36.8405687 7.0541706 36.8405687"></polygon>
            <g id="Path-Clipped">
                <mask id="mask-26" fill="white">
                    <use xlink:href="#path-25"></use>
                </mask>
                <g id="path-25"></g>
                <path d="M9.79958136,35.1502417 L9.79958136,35.1406918 C9.79958136,34.1743865 10.4712556,33.3824547 11.4265962,33.3824547 C12.0080772,33.3824547 12.3596539,33.6013943 12.6613591,33.9119419 L12.305538,34.3537118 C12.052997,34.1015245 11.7824173,33.931749 11.4219982,33.931749 C10.8228322,33.931749 10.3810623,34.4658344 10.3810623,35.131142 L10.3810623,35.1406918 C10.3810623,35.8063531 10.8182342,36.3446828 11.4219982,36.3446828 C11.8096521,36.3446828 12.0572414,36.1798592 12.3281747,35.9082184 L12.6839958,36.2965798 C12.3550558,36.6654877 11.9946367,36.8985753 11.4039595,36.8985753 C10.4846961,36.8985753 9.79958136,36.1268043 9.79958136,35.1502417" id="Path" fill="#000000" fill-rule="nonzero" mask="url(#mask-26)"></path>
            </g>
            <polygon id="Path" fill="#000000" fill-rule="nonzero" points="13.220557 33.4411687 13.7748032 33.4411687 13.7748032 34.853842 15.2801456 34.853842 15.2801456 33.4411687 15.8347455 33.4411687 15.8347455 36.8405687 15.2801456 36.8405687 15.2801456 35.4077345 13.7748032 35.4077345 13.7748032 36.8405687 13.220557 36.8405687"></polygon>
            <polygon id="Path" fill="#000000" fill-rule="nonzero" points="16.6015647 33.4411687 17.1154891 33.4411687 18.8051087 35.7914978 18.8051087 33.4411687 19.3505124 33.4411687 19.3505124 36.8405687 18.8861058 36.8405687 17.1469683 34.4219757 17.1469683 36.8405687 16.6015647 36.8405687"></polygon>
            <g id="Shape-Clipped">
                <mask id="mask-28" fill="white">
                    <use xlink:href="#path-27"></use>
                </mask>
                <g id="path-27"></g>
                <path d="M19.9776205,35.1502417 L19.9776205,35.1406918 C19.9776205,34.18429 20.6627353,33.3824547 21.6315165,33.3824547 C22.6002978,33.3824547 23.2762164,34.1740328 23.2762164,35.1307883 L23.2762164,35.1403381 C23.2762164,36.0970936 22.5914553,36.8982217 21.6226741,36.8982217 C20.6538928,36.8985753 19.9776205,36.1069972 19.9776205,35.1502417 M22.6950891,35.1502417 L22.6950891,35.1406918 C22.6950891,34.480336 22.2487211,33.931749 21.6226741,33.931749 C20.9962733,33.931749 20.5587478,34.4704324 20.5587478,35.131142 L20.5587478,35.1406918 C20.5587478,35.8010476 21.0051158,36.3446828 21.6315165,36.3446828 C22.2579173,36.3446828 22.6950891,35.8105975 22.6950891,35.1502417" id="Shape" fill="#000000" fill-rule="nonzero" mask="url(#mask-28)"></path>
            </g>
            <polygon id="Path" fill="#000000" fill-rule="nonzero" points="23.9036782 33.4411687 24.4579243 33.4411687 24.4579243 36.2962261 26.1164184 36.2962261 26.1164184 36.8405687 23.9036782 36.8405687"></polygon>
            <g id="Group">
                <g id="Shape-Clipped">
                    <mask id="mask-30" fill="white">
                        <use xlink:href="#path-29"></use>
                    </mask>
                    <g id="path-29"></g>
                    <path d="M26.3286378,35.1502417 L26.3286378,35.1406918 C26.3286378,34.18429 27.0137525,33.3824547 27.9828874,33.3824547 C28.9516687,33.3824547 29.6275873,34.1740328 29.6275873,35.1307883 L29.6275873,35.1403381 C29.6275873,36.0970936 28.9424725,36.8982217 27.9733376,36.8982217 C27.0052637,36.8985753 26.3286378,36.1069972 26.3286378,35.1502417 M29.04646,35.1502417 L29.04646,35.1406918 C29.04646,34.480336 28.600092,33.931749 27.9736913,33.931749 C27.3476442,33.931749 26.9104724,34.4704324 26.9104724,35.131142 L26.9104724,35.1406918 C26.9104724,35.8010476 27.3564867,36.3446828 27.9832411,36.3446828 C28.6089345,36.3446828 29.04646,35.8105975 29.04646,35.1502417" id="Shape" fill="#000000" fill-rule="nonzero" mask="url(#mask-30)"></path>
                </g>
                <g id="Path-Clipped">
                    <mask id="mask-32" fill="white">
                        <use xlink:href="#path-31"></use>
                    </mask>
                    <g id="path-31"></g>
                    <path d="M30.115338,35.1502417 L30.115338,35.1406918 C30.115338,34.1892418 30.7912566,33.3824547 31.7423529,33.3824547 C32.292001,33.3824547 32.6301371,33.5479857 32.954479,33.8443854 L32.6029023,34.2957052 C32.3595575,34.0721675 32.1208107,33.931749 31.7200699,33.931749 C31.1385889,33.931749 30.696819,34.480336 30.696819,35.131142 L30.696819,35.1406918 C30.696819,35.8399545 31.1247947,36.3545864 31.769234,36.3545864 C32.0666948,36.3545864 32.3372744,36.2530748 32.5311014,36.0974473 L32.5311014,35.4607893 L31.7243143,35.4607893 L31.7243143,34.9415594 L33.067309,34.9415594 L33.067309,36.3690881 C32.7564076,36.6555842 32.3100396,36.8982217 31.7511954,36.8982217 C30.7643755,36.8985753 30.115338,36.1409523 30.115338,35.1502417" id="Path" fill="#000000" fill-rule="nonzero" mask="url(#mask-32)"></path>
                </g>
            </g>
            <polygon id="Path" fill="#000000" fill-rule="nonzero" points="34.627121 35.4996962 33.3743196 33.4411687 34.0321995 33.4411687 34.9111412 34.9412057 35.8031698 33.4411687 36.4387667 33.4411687 35.1859653 35.4851945 35.1859653 36.840215 34.627121 36.840215"></polygon>
            <path d="M39.1261709,33.4167635 L39.6397417,33.4167635 L41.0276561,36.8405687 L40.4419307,36.8405687 L40.1218333,36.0199873 L38.630285,36.0199873 L38.3055895,36.8405687 L37.7379028,36.8405687 L39.1261709,33.4167635 Z M39.9188101,35.4901463 L39.3734064,34.1305278 L38.8326008,35.4901463 L39.9188101,35.4901463 Z" id="Shape" fill="#000000" fill-rule="nonzero"></path>
            <polygon id="Path" fill="#000000" fill-rule="nonzero" points="41.4340561 33.4411687 41.9879486 33.4411687 41.9879486 36.2962261 43.6467964 36.2962261 43.6467964 36.8405687 41.4340561 36.8405687"></polygon>
            <polygon id="Path" fill="#000000" fill-rule="nonzero" points="44.0885663 33.4411687 44.6428124 33.4411687 44.6428124 36.2962261 46.3013065 36.2962261 46.3013065 36.8405687 44.0885663 36.8405687"></polygon>
            <rect id="Rectangle" fill="#000000" fill-rule="nonzero" x="46.775263" y="33.440815" width="1" height="3.3994"></rect>
            <path d="M49.1553028,33.4167635 L49.6688736,33.4167635 L51.0571417,36.8405687 L50.4710627,36.8405687 L50.1509652,36.0199873 L48.6590633,36.0199873 L48.3347214,36.8405687 L47.7670347,36.8405687 L49.1553028,33.4167635 Z M49.9482957,35.4901463 L49.4028921,34.1305278 L48.8620865,35.4901463 L49.9482957,35.4901463 Z" id="Shape" fill="#000000" fill-rule="nonzero"></path>
            <polygon id="Path" fill="#000000" fill-rule="nonzero" points="51.4631881 33.4411687 51.9767589 33.4411687 53.6667321 35.7914978 53.6667321 33.4411687 54.2117821 33.4411687 54.2117821 36.8405687 53.7480829 36.8405687 52.0085918 34.4219757 52.0085918 36.8405687 51.4631881 36.8405687"></polygon>
            <g id="Path-Clipped">
                <mask id="mask-34" fill="white">
                    <use xlink:href="#path-33"></use>
                </mask>
                <g id="path-33"></g>
                <path d="M54.7490507,35.1502417 L54.7490507,35.1406918 C54.7490507,34.1743865 55.4207249,33.3824547 56.3764193,33.3824547 C56.9579003,33.3824547 57.309477,33.6013943 57.6108284,33.9119419 L57.2550073,34.3537118 C57.0024663,34.1015245 56.7318867,33.931749 56.3714675,33.931749 C55.7726553,33.931749 55.3305317,34.4658344 55.3305317,35.131142 L55.3305317,35.1406918 C55.3305317,35.8063531 55.7677035,36.3446828 56.3714675,36.3446828 C56.7591215,36.3446828 57.0070644,36.1798592 57.2772904,35.9082184 L57.6338189,36.2965798 C57.3048789,36.6654877 56.944106,36.8985753 56.3537826,36.8985753 C55.4341655,36.8985753 54.7490507,36.1268043 54.7490507,35.1502417" id="Path" fill="#000000" fill-rule="nonzero" mask="url(#mask-34)"></path>
            </g>
            <polygon id="Path" fill="#000000" fill-rule="nonzero" points="58.0805405 33.4411687 60.4188439 33.4411687 60.4188439 33.975254 58.6340793 33.975254 58.6340793 34.8591475 60.2161744 34.8591475 60.2161744 35.3932328 58.6340793 35.3932328 58.6340793 36.3061297 60.4418343 36.3061297 60.4418343 36.8405687 58.0805405 36.8405687"></polygon>
            <rect id="Rectangle" fill="#FFDB00" fill-rule="nonzero" x="0.230257975" y="40.5812881" width="15.7205007" height="1.86293204"></rect>
            <g id="Shape-Clipped">
                <mask id="mask-36" fill="white">
                    <use xlink:href="#path-35"></use>
                </mask>
                <g id="path-35"></g>
                <path d="M95.4919792,16.1491838 C94.8386974,16.8583501 93.9919422,17.2127563 92.9495916,17.2127563 C91.8976911,17.2127563 91.0484601,16.8533983 90.4004837,16.1350358 C89.7525074,15.4166734 89.4285192,14.5218152 89.4285192,13.4518761 C89.4285192,12.3812295 89.7525074,11.4863714 90.4004837,10.7683626 C91.0484601,10.0503539 91.8976911,9.69099581 92.9495916,9.69099581 C93.9919422,9.69099581 94.8390511,10.0454021 95.4919792,10.7542147 C96.1445537,11.4633809 96.4710177,12.3624835 96.4710177,13.4518761 C96.4710177,14.5412686 96.1445537,15.4407249 95.4919792,16.1491838 M96.3581878,6.63433002 L96.3581878,8.14144098 C95.3632328,6.89323761 94.0011384,6.26789798 92.2733194,6.26789798 C90.3859821,6.26789798 88.8130831,6.95372012 87.5549762,8.32430331 C86.2961619,9.69559389 85.6672852,11.4046669 85.6672852,13.4518761 C85.6672852,15.4990852 86.2961619,17.2081583 87.5549762,18.5787414 C88.8130831,19.950032 90.3859821,20.6351468 92.2733194,20.6351468 C93.9919422,20.6351468 95.353683,20.0154663 96.3581878,18.7757517 L96.3581878,20.2828627 L99.9503537,20.2828627 L99.9503537,6.63397633 L96.3581878,6.63397633 L96.3581878,6.63433002 Z" id="Shape" fill="#000000" fill-rule="nonzero" mask="url(#mask-36)"></path>
            </g>
            <rect id="Rectangle" fill="#000000" fill-rule="nonzero" x="72.4085288" y="0.000353698887" width="3.67634623" height="20.2828627"></rect>
            <g id="Group">
                <g id="Shape-Clipped">
                    <mask id="mask-38" fill="white">
                        <use xlink:href="#path-37"></use>
                    </mask>
                    <g id="path-37"></g>
                    <path d="M65.5163522,16.1491838 C64.8634241,16.8583501 64.016669,17.2127563 62.9739646,17.2127563 C61.9217105,17.2127563 61.0721257,16.8533983 60.4245031,16.1350358 C59.7765267,15.4166734 59.4525385,14.5218152 59.4525385,13.4518761 C59.4525385,12.3812295 59.7765267,11.4863714 60.4245031,10.7683626 C61.0721257,10.0503539 61.9217105,9.69099581 62.9739646,9.69099581 C64.0163153,9.69099581 64.8634241,10.0454021 65.5163522,10.7542147 C66.1689267,11.4633809 66.4957445,12.3624835 66.4957445,13.4518761 C66.4957445,14.5412686 66.1689267,15.4407249 65.5163522,16.1491838 M66.3829145,6.63433002 L66.3829145,8.14144098 C65.3879596,6.89323761 64.0258651,6.26789798 62.2980461,6.26789798 C60.4107088,6.26789798 58.8378099,6.95372012 57.5793492,8.32430331 C56.3208886,9.69559389 55.692012,11.4046669 55.692012,13.4518761 C55.692012,15.4990852 56.3208886,17.2081583 57.5793492,18.5787414 C58.8378099,19.950032 60.4107088,20.6351468 62.2980461,20.6351468 C64.016669,20.6351468 65.378056,20.0154663 66.3829145,18.7757517 L66.3829145,20.2828627 L69.9747267,20.2828627 L69.9747267,6.63397633 L66.3829145,6.63397633 L66.3829145,6.63433002 Z" id="Shape" fill="#000000" fill-rule="nonzero" mask="url(#mask-38)"></path>
                </g>
                <g id="Path-Clipped">
                    <mask id="mask-40" fill="white">
                        <use xlink:href="#path-39"></use>
                    </mask>
                    <g id="path-39"></g>
                    <path d="M44.8129416,8.24012297 L44.8129416,6.63433002 L41.2352774,6.63433002 L41.2352774,20.2832164 L44.9116236,20.2832164 L44.9116236,12.8038997 C44.9116236,11.8089447 45.183618,11.0456625 45.7283143,10.5151142 C46.2730106,9.98456588 46.9630771,9.71929172 47.7992213,9.71929172 C48.6534041,9.71929172 49.3109303,9.98244369 49.7710926,10.5080402 C50.2309011,11.0336368 50.4611591,11.789845 50.4611591,12.7756038 L50.4611591,20.2832164 L54.1375054,20.2832164 L54.1375054,11.592481 C54.1375054,10.014984 53.6423269,8.73317922 52.6516163,7.74706672 C51.6609057,6.76130793 50.386175,6.26825168 48.827424,6.26825168 C47.0334632,6.26825168 45.6954203,6.92577791 44.8129416,8.24012297" id="Path" fill="#000000" fill-rule="nonzero" mask="url(#mask-40)"></path>
                </g>
                <g id="Path-Clipped">
                    <mask id="mask-42" fill="white">
                        <use xlink:href="#path-41"></use>
                    </mask>
                    <g id="path-41"></g>
                    <path d="M29.0956241,8.29636109 C27.7526295,9.64855194 27.081309,11.3668211 27.081309,13.4518761 C27.081309,15.5362236 27.7526295,17.2548465 29.0956241,18.6070374 C30.4386188,19.9592282 32.189782,20.6351468 34.3494674,20.6351468 C36.6594748,20.6351468 38.4859759,19.7806103 39.8286169,18.0715372 L37.2087692,15.8319159 C36.3542327,16.7525941 35.3635221,17.2120489 34.2369912,17.2120489 C33.2696247,17.2120489 32.4596543,16.865424 31.8070798,16.1696983 C31.1541517,15.4750337 30.8280413,14.5692109 30.8280413,13.4515224 C30.8280413,12.3338339 31.1566276,11.4276573 31.8141538,10.7322853 C32.4713263,10.0376207 33.2837727,9.69064211 34.2507854,9.69064211 C35.340178,9.69064211 36.3121425,10.1458526 37.1666791,11.0566272 L39.8148226,8.84494807 C39.1855923,8.01906117 38.4039178,7.38240317 37.4694453,6.93638887 C36.5349728,6.49037458 35.4950981,6.26719058 34.3494674,6.26719058 C32.189782,6.26825168 30.4386188,6.94417025 29.0956241,8.29636109" id="Path" fill="#000000" fill-rule="nonzero" mask="url(#mask-42)"></path>
                </g>
                <g id="Shape-Clipped">
                    <mask id="mask-44" fill="white">
                        <use xlink:href="#path-43"></use>
                    </mask>
                    <g id="path-43"></g>
                    <path d="M16.1619169,12.1700713 C16.330985,11.2960814 16.6712433,10.6229924 17.1830456,10.1486822 C17.6948479,9.67437196 18.3778405,9.43704001 19.232377,9.43704001 C20.0306754,9.43704001 20.6836035,9.67189607 21.190454,10.1412545 C21.6973045,10.6109666 22.0357944,11.2868852 22.2045087,12.1697176 L16.1619169,12.1697176 L16.1619169,12.1700713 Z M25.8950029,13.4377281 C25.8950029,11.3155348 25.2799206,9.59019162 24.0497558,8.26099121 C22.8195911,6.93214449 21.223348,6.26754428 19.2606729,6.26754428 C17.2134637,6.26754428 15.5514327,6.93709627 14.274226,8.27513916 C12.9970193,9.61318205 12.3585928,11.3526732 12.3585928,13.4939662 C12.3585928,15.6253557 13.016119,17.3485767 14.3308178,18.6632755 C15.6451629,19.9783279 17.3496378,20.6351468 19.4438889,20.6351468 C21.8005846,20.6351468 23.7399156,19.9450802 25.2611745,18.5645935 L23.1060872,16.1979942 C22.0729327,17.0712768 20.922704,17.5080949 19.6550472,17.5080949 C18.7442725,17.5080949 17.9763922,17.2735925 17.3521137,16.8038804 C16.7274815,16.3341683 16.3260332,15.6253557 16.147769,14.6767353 L25.8246168,14.6767353 C25.8716588,14.3209142 25.8950029,13.9074402 25.8950029,13.4377281" id="Shape" fill="#000000" fill-rule="nonzero" mask="url(#mask-44)"></path>
                </g>
                <g id="Path-Clipped">
                    <mask id="mask-46" fill="white">
                        <use xlink:href="#path-45"></use>
                    </mask>
                    <g id="path-45"></g>
                    <path d="M11.2883,6.63433002 L6.34429694,6.63433002 L6.34429694,2.57775749 L2.66795071,2.57775749 L2.66795071,6.63433002 L0.0339550932,6.63433002 L0.0339550932,9.90215404 L2.66795071,9.90215404 L2.66795071,15.1842932 C2.66795071,16.9683504 3.09769485,18.3230171 3.95682945,19.2479397 C4.81596405,20.1728623 6.09069484,20.6355005 7.78102182,20.6355005 C9.41475698,20.6355005 10.9218679,20.1565922 12.3023547,19.1987756 L10.9501638,16.3249721 C9.97360122,16.9167104 9.11906471,17.2124026 8.38655431,17.2124026 C7.77642373,17.2124026 7.28336748,17.0245885 6.90773926,16.649314 C6.53211105,16.2733321 6.34429694,15.6865456 6.34429694,14.8882473 L6.34429694,9.90180034 L11.2883,9.90180034 L11.2883,6.63433002 L11.2883,6.63433002 Z" id="Path" fill="#000000" fill-rule="nonzero" mask="url(#mask-46)"></path>
                </g>
                <g id="Path-Clipped">
                    <mask id="mask-48" fill="white">
                        <use xlink:href="#path-47"></use>
                    </mask>
                    <g id="path-47"></g>
                    <path d="M81.1636373,12.6507481 C82.9314244,12.6507481 84.3394996,11.2426728 84.3394996,9.47488579 C84.3394996,7.70780615 82.9314244,6.29902348 81.1636373,6.29902348 C79.3965577,6.29902348 77.987775,7.70745245 77.987775,9.47488579 C77.987775,11.2423191 79.3965577,12.6507481 81.1636373,12.6507481" id="Path" fill="#FF5000" fill-rule="nonzero" mask="url(#mask-48)"></path>
                </g>
                <g id="Path-Clipped">
                    <mask id="mask-50" fill="white">
                        <use xlink:href="#path-49"></use>
                    </mask>
                    <g id="path-49"></g>
                    <path d="M81.1636373,20.4699694 C82.9314244,20.4699694 84.3394996,19.0615404 84.3394996,17.2941071 C84.3394996,15.5273811 82.9314244,14.1185985 81.1636373,14.1185985 C79.3965577,14.1185985 77.987775,15.5270274 77.987775,17.2941071 C77.987775,19.0615404 79.3965577,20.4699694 81.1636373,20.4699694" id="Path" fill="#FF5000" fill-rule="nonzero" mask="url(#mask-50)"></path>
                </g>
            </g>
        </g>
    </g>
</svg>